:SAMPLES-PER-SECOND 30
:FRAME-RANGE 1-668
:FULLY-SPECIFIED
:DEGREES
168
root  -0.177721 39.7311 26.0611 -169.575 -5.66273 -175.252
RightUpLeg  -20.7218 -6.11299 -2.12295
RightLeg  28.2387 7.72956 4.2611
RightFoot  -5.36181 -0.612086 10.9863
RightToes  5.38607e-012 1.2921e-014 -6.02303e-014
Spine  -0.496755 5.86687 11.4992
Spine1  6.80267 11.0196 -20.2638
HEad  11.0735 -27.3629 7.27126
LeftShoulder1  -0.939456 10.8029 -4.7906
LeftArm  -24.0472 -35.3408 -2.93449
LeftForeArm  22.1271 -19.8761 -4.41691
LeftHand  0.347978 8.67659 13.1445
RightShoulder  0.0390591 9.13348 -9.20742
RightArm  18.5645 -37.2815 26.7425
RightForeArm  40.179 39.89 6.82267
RightHand  -0.0420958 -5.12213 -10.0828
LeftUpLeg  -17.1287 0.234909 5.58874
LeftLeg  18.7911 1.99209 1.78514
LeftFoot  -10.7341 0.0791968 -2.7972
LeftToes  -6.11857e-011 5.00151e-011 -2.22593e-011
169
root  -0.220543 39.7835 26.0148 -170.555 -6.81627 -174.697
RightUpLeg  -20.7909 -7.08493 -1.80321
RightLeg  30.4147 8.18913 4.94086
RightFoot  -4.07892 -0.790402 11.9744
RightToes  5.38607e-012 1.2921e-014 -6.02303e-014
Spine  -0.698301 4.13745 10.4525
Spine1  7.61353 9.00011 -18.961
HEad  10.8753 -30.247 9.58525
LeftShoulder1  -0.937254 9.65484 -7.29877
LeftArm  -23.1593 -31.4559 -1.64296
LeftForeArm  21.252 -18.3729 -4.95086
LeftHand  0.337554 8.61718 13.0157
RightShoulder  -0.188863 8.74596 -11.3766
RightArm  28.6827 -33.1695 16.3297
RightForeArm  37.8536 48.2774 9.76835
RightHand  -0.0655302 -3.32639 -2.7688
LeftUpLeg  -16.153 0.28463 6.115
LeftLeg  18.5067 0.893006 1.5057
LeftFoot  -10.6418 0.0789568 -2.47785
LeftToes  -6.11857e-011 5.00151e-011 -2.22593e-011
170
root  -0.2586 39.8513 25.9878 -171.635 -8.28786 -174.06
RightUpLeg  -20.6995 -7.56741 -1.42535
RightLeg  32.2719 8.00943 5.19016
RightFoot  -2.62491 -1.02461 13.1544
RightToes  5.38607e-012 1.2921e-014 -6.02303e-014
Spine  -0.851484 2.03288 9.10397
Spine1  8.23008 6.31295 -16.8207
HEad  11.1583 -31.8428 10.5381
LeftShoulder1  -0.717672 7.62436 -9.3883
LeftArm  -21.1111 -26.2628 -0.683568
LeftForeArm  18.9867 -16.199 -5.86643
LeftHand  0.243057 8.06908 11.6324
RightShoulder  -0.400028 8.41717 -13.5031
RightArm  36.0248 -24.7934 7.9966
RightForeArm  32.4571 52.6822 12.1158
RightHand  0.137848 -0.768235 3.60032
LeftUpLeg  -15.2296 -0.256329 6.76798
LeftLeg  18.2521 0.0999836 1.34656
LeftFoot  -10.3901 0.0807009 -2.21287
LeftToes  -6.11857e-011 5.00151e-011 -2.22593e-011
171
root  -0.281546 39.892 25.9447 -172.543 -9.6506 -173.763
RightUpLeg  -20.636 -7.58919 -1.39101
RightLeg  33.9657 7.60758 5.24668
RightFoot  -1.51539 -1.21924 13.9986
RightToes  5.38607e-012 1.2921e-014 -6.02303e-014
Spine  -1.15769 -0.170408 7.35462
Spine1  9.02503 3.53959 -14.7636
HEad  11.5976 -32.6842 11.5843
LeftShoulder1  -0.289657 4.90027 -11.1205
LeftArm  -17.3061 -19.6156 -0.134402
LeftForeArm  18.504 -15.3953 -6.3494
LeftHand  0.223922 8.0207 11.041
RightShoulder  -0.432115 7.82416 -14.0541
RightArm  39.3136 -13.4816 1.97125
RightForeArm  26.4945 52.5696 12.5604
RightHand  0.722268 2.6837 10.1546
LeftUpLeg  -14.5582 -0.933704 7.11254
LeftLeg  18.2782 -0.462596 1.13909
LeftFoot  -10.1794 0.081738 -2.03769
LeftToes  -6.11857e-011 5.00151e-011 -2.22593e-011
172
root  -0.301655 39.9119 25.8994 -173.418 -11.1154 -173.576
RightUpLeg  -20.1985 -7.41345 -1.39752
RightLeg  35.0603 6.68122 4.77516
RightFoot  -0.949571 -1.38088 15.0338
RightToes  5.38607e-012 1.2921e-014 -6.02303e-014
Spine  -1.55498 -2.42747 5.70467
Spine1  9.87825 0.780406 -13.1032
HEad  12.9051 -33.6666 11.446
LeftShoulder1  0.492669 0.737794 -12.334
LeftArm  -12.7637 -10.8472 0.223651
LeftForeArm  19.0344 -15.7744 -6.30211
LeftHand  0.226812 7.94594 11.4526
RightShoulder  -0.351459 6.40293 -13.7839
RightArm  40.0179 0.280279 -0.794869
RightForeArm  18.2942 46.0289 10.3214
RightHand  1.62394 6.59982 15.2415
LeftUpLeg  -14.0876 -2.32599 7.37377
LeftLeg  18.6154 -0.536639 1.07797
LeftFoot  -10.0325 0.083009 -1.99711
LeftToes  -6.11857e-011 5.00151e-011 -2.22593e-011
173
root  -0.325374 39.9323 25.8527 -174.132 -12.6002 -173.613
RightUpLeg  -19.3345 -6.99103 -1.58311
RightLeg  35.2942 5.64004 4.03202
RightFoot  -0.943341 -1.46837 15.9707
RightToes  5.38607e-012 1.2921e-014 -6.02303e-014
Spine  -2.28135 -4.71948 3.05483
Spine1  11.2221 -2.28725 -10.36
HEad  14.0019 -33.9539 10.8398
LeftShoulder1  1.24754 -2.86823 -13.4731
LeftArm  -8.08406 -1.60584 -0.118709
LeftForeArm  17.9327 -16.8028 -5.97205
LeftHand  0.199401 7.55944 11.9223
RightShoulder  -0.164874 4.64881 -12.0564
RightArm  39.7921 15.2275 -2.98055
RightForeArm  11.5307 34.9729 7.18424
RightHand  2.43076 9.64376 18.1318
LeftUpLeg  -13.6828 -4.138 7.40971
LeftLeg  18.8092 -0.338302 1.10176
LeftFoot  -9.79204 0.0875719 -2.13125
LeftToes  -6.11857e-011 5.00151e-011 -2.22593e-011
